<svg version="1.1" xmlns="http://www.w3.org/2000/svg" viewBox="0 0 572.5 532" width="572.5" height="532" class="excalidraw-svg">
  <!-- svg-source:excalidraw -->
  
  <defs>
    <style class="style-fonts">
      @font-face {
        font-family: "Virgil";
        src: url("https://excalidraw.com/Virgil.woff2");
      }
      @font-face {
        font-family: "Cascadia";
        src: url("https://excalidraw.com/Cascadia.woff2");
      }
      @font-face {
        font-family: "Assistant";
        src: url("https://excalidraw.com/Assistant-Regular.woff2");
      }
    </style>
    
  </defs>
  <rect x="0" y="0" width="572.5" height="532" fill="#ffffff"/><g stroke-linecap="round" transform="translate(98 10) rotate(0 109.75 157.5)"><path d="M107.84 0.79 C119.33 -1.82, 133.22 3.29, 144.71 8.57 C156.2 13.85, 167.58 22.26, 176.81 32.45 C186.03 42.65, 193.6 55.54, 200.05 69.75 C206.5 83.97, 212.41 101.34, 215.49 117.75 C218.57 134.15, 219.43 151.16, 218.52 168.19 C217.61 185.21, 214.56 204.02, 210.02 219.91 C205.48 235.79, 199.14 250.82, 191.3 263.5 C183.45 276.18, 173.24 287.67, 162.94 295.97 C152.65 304.26, 141.32 310.47, 129.54 313.29 C117.77 316.12, 103.96 315.8, 92.28 312.9 C80.6 310, 70 303.86, 59.47 295.9 C48.93 287.94, 37.44 277.28, 29.07 265.16 C20.69 253.04, 13.92 238.75, 9.22 223.19 C4.51 207.64, 1.99 189.06, 0.85 171.83 C-0.29 154.59, -0.24 136.4, 2.37 119.79 C4.97 103.17, 10.02 86.48, 16.49 72.14 C22.97 57.81, 31.82 44.33, 41.23 33.79 C50.64 23.26, 60.52 14.4, 72.96 8.94 C85.4 3.48, 107.27 1.58, 115.89 1.02 C124.5 0.46, 124.67 3.08, 124.66 5.56 M139.74 6.16 C151.01 7.97, 161.14 18.66, 171.01 28.08 C180.89 37.5, 191.48 49.07, 198.97 62.67 C206.47 76.26, 212.51 92.94, 215.96 109.66 C219.41 126.37, 220.09 145.8, 219.66 162.96 C219.23 180.12, 217.63 196.64, 213.4 212.6 C209.16 228.56, 201.8 245.38, 194.27 258.72 C186.73 272.06, 178.11 283.96, 168.18 292.62 C158.26 301.28, 146.27 307.25, 134.73 310.65 C123.18 314.06, 111.05 314.9, 98.93 313.06 C86.81 311.21, 72.99 306.6, 61.99 299.57 C50.99 292.53, 41.05 282.49, 32.93 270.88 C24.81 259.26, 18.79 245.07, 13.27 229.87 C7.75 214.67, 1.62 196.73, -0.2 179.69 C-2.01 162.65, 0.04 144.25, 2.41 127.63 C4.78 111.02, 8.14 94.63, 14.03 80 C19.93 65.38, 28.59 51.38, 37.79 39.88 C46.99 28.38, 58.41 17.37, 69.21 10.99 C80.01 4.61, 90.72 2.66, 102.6 1.6 C114.48 0.55, 134.27 3.26, 140.48 4.65 C146.69 6.04, 140.68 7.07, 139.85 9.93" stroke="#1e1e1e" stroke-width="2" fill="none"/></g><g transform="translate(162 109.5) rotate(0 124.25 195.75)" stroke="none"><path fill="#1e1e1e" d="M -1.23,-2.87 Q -1.23,-2.87 10.87,-7.98 22.97,-13.09 34.97,-16.18 46.97,-19.27 61.93,-17.84 76.89,-16.41 89.71,-11.81 102.53,-7.21 113.95,1.82 125.38,10.86 136.35,26.24 147.33,41.61 154.38,53.44 161.44,65.27 165.90,74.39 170.36,83.50 172.53,88.22 174.70,92.94 176.29,94.83 177.87,96.72 177.98,97.09 178.10,97.45 178.13,97.83 178.15,98.21 178.09,98.58 178.02,98.96 177.87,99.31 177.72,99.66 177.48,99.96 177.25,100.26 176.95,100.50 176.66,100.73 176.31,100.89 175.96,101.05 175.59,101.13 175.22,101.20 174.84,101.18 174.46,101.16 174.09,101.05 173.73,100.94 173.40,100.74 173.07,100.55 172.80,100.28 172.53,100.02 172.33,99.69 172.13,99.37 172.95,95.85 173.76,92.33 174.98,83.91 176.20,75.49 180.44,64.01 184.68,52.54 187.55,46.35 190.42,40.17 195.75,35.56 201.08,30.95 208.15,29.25 215.23,27.54 228.98,33.02 242.72,38.51 254.72,47.15 266.72,55.79 277.42,65.53 288.13,75.27 299.32,87.36 310.51,99.45 317.17,107.79 323.82,116.13 327.66,121.41 331.50,126.70 333.33,128.97 335.16,131.25 336.43,133.18 337.70,135.12 338.66,138.44 339.62,141.75 342.48,148.83 345.33,155.91 346.86,161.33 348.38,166.76 349.56,172.13 350.75,177.51 350.81,182.39 350.88,187.26 350.04,190.74 349.20,194.21 341.93,198.13 334.67,202.04 325.97,203.64 317.27,205.23 305.85,205.13 294.44,205.03 278.63,203.23 262.82,201.42 251.35,200.65 239.88,199.88 229.30,200.83 218.72,201.78 212.80,203.47 206.89,205.15 202.19,211.97 197.49,218.79 195.73,225.87 193.97,232.94 195.03,240.41 196.09,247.87 200.45,257.51 204.81,267.14 208.66,274.16 212.51,281.17 217.68,286.20 222.86,291.23 226.66,293.62 230.46,296.00 233.00,296.14 235.53,296.27 234.76,289.68 233.98,283.09 233.43,278.19 232.88,273.28 231.95,269.45 231.01,265.63 230.11,263.12 229.20,260.61 229.15,260.20 229.10,259.79 229.15,259.37 229.20,258.96 229.34,258.57 229.49,258.18 229.72,257.84 229.96,257.50 230.27,257.22 230.58,256.94 230.95,256.75 231.31,256.56 231.72,256.46 232.12,256.36 232.54,256.35 232.95,256.35 233.36,256.45 233.76,256.55 234.13,256.74 234.50,256.94 234.81,257.21 235.12,257.49 235.36,257.83 235.59,258.17 235.74,258.56 235.89,258.94 236.55,262.99 237.21,267.03 239.05,272.73 240.90,278.43 242.94,283.42 244.98,288.41 246.64,294.63 248.29,300.86 248.63,306.53 248.97,312.20 244.64,317.88 240.32,323.56 231.04,326.87 221.76,330.18 208.70,331.49 195.63,332.80 174.54,332.61 153.45,332.43 135.71,331.48 117.98,330.53 102.40,331.14 86.81,331.74 77.58,332.28 68.34,332.82 64.60,333.08 60.85,333.33 59.72,336.13 58.59,338.92 63.42,344.51 68.25,350.09 82.42,359.52 96.59,368.96 110.86,375.27 125.14,381.58 137.49,384.23 149.84,386.88 161.83,385.44 173.82,384.00 181.54,380.67 189.27,377.34 193.99,370.76 198.71,364.19 201.21,358.61 203.70,353.02 204.65,349.64 205.60,346.26 205.72,343.18 205.84,340.10 205.98,339.69 206.12,339.27 206.36,338.90 206.60,338.53 206.93,338.23 207.25,337.93 207.63,337.71 208.02,337.50 208.44,337.38 208.87,337.26 209.31,337.25 209.75,337.24 210.18,337.33 210.61,337.42 211.00,337.62 211.40,337.81 211.74,338.09 212.07,338.38 212.34,338.73 212.60,339.09 212.76,339.49 212.93,339.90 213.00,340.34 213.06,340.77 213.02,341.21 212.98,341.65 211.24,343.62 209.49,345.59 207.20,348.07 204.90,350.56 199.85,355.77 194.80,360.98 188.06,366.86 181.32,372.74 170.10,379.91 158.88,387.08 147.26,392.58 135.64,398.08 123.42,402.15 111.20,406.22 93.32,408.83 75.45,411.44 59.34,412.24 43.24,413.04 23.15,410.77 3.06,408.51 -14.87,404.35 -32.81,400.20 -49.00,394.37 -65.19,388.54 -82.46,380.58 -99.74,372.61 -111.90,363.60 -124.05,354.60 -132.90,339.20 -141.76,323.79 -142.64,304.79 -143.53,285.80 -136.59,264.01 -129.65,242.21 -105.71,207.65 -81.78,173.08 -49.74,144.92 -17.71,116.76 36.53,93.62 90.78,70.47 140.38,59.93 189.98,49.39 235.89,46.79 281.79,44.18 316.05,46.83 350.31,49.47 364.99,52.78 379.67,56.09 386.11,59.16 392.54,62.23 395.58,64.08 398.63,65.93 398.88,70.54 399.12,75.14 391.72,77.89 384.32,80.64 379.51,82.40 374.70,84.15 369.86,85.75 365.01,87.36 362.89,88.29 360.76,89.21 358.40,90.22 356.05,91.23 355.48,91.31 354.91,91.39 354.35,91.28 353.78,91.18 353.28,90.90 352.78,90.61 352.39,90.19 352.01,89.76 351.78,89.23 351.55,88.71 351.50,88.13 351.46,87.56 351.59,87.00 351.73,86.44 352.04,85.96 352.35,85.47 352.80,85.11 353.24,84.75 353.78,84.55 354.32,84.35 354.90,84.33 355.47,84.32 356.02,84.48 356.57,84.65 357.04,84.99 357.51,85.32 357.84,85.79 358.18,86.25 358.35,86.80 358.52,87.35 358.50,87.93 358.49,88.50 358.29,89.04 358.10,89.58 357.74,90.03 357.38,90.48 356.89,90.79 356.41,91.10 355.85,91.24 355.30,91.38 354.72,91.33 354.15,91.29 353.62,91.06 353.09,90.84 352.66,90.45 352.23,90.07 351.95,89.57 351.67,89.07 351.56,88.51 351.45,87.94 351.52,87.37 351.60,86.80 351.85,86.29 352.11,85.77 352.51,85.36 352.92,84.96 353.43,84.70 353.95,84.44 353.95,84.44 353.95,84.44 356.30,83.58 358.66,82.71 360.87,82.24 363.09,81.77 367.79,80.08 372.50,78.40 377.29,76.46 382.09,74.53 388.36,72.29 394.63,70.05 392.44,68.50 390.25,66.96 384.37,64.08 378.49,61.21 364.19,57.96 349.90,54.71 315.99,52.07 282.08,49.43 236.57,51.98 191.07,54.54 141.94,64.93 92.82,75.32 39.25,98.04 -14.31,120.76 -45.89,148.44 -77.48,176.11 -101.07,210.00 -124.66,243.89 -131.47,264.79 -138.27,285.70 -137.68,303.57 -137.08,321.44 -128.93,335.96 -120.77,350.49 -109.13,359.14 -97.49,367.79 -80.43,375.65 -63.38,383.52 -47.48,389.24 -31.59,394.96 -13.95,399.04 3.67,403.12 23.32,405.34 42.97,407.56 58.81,406.74 74.65,405.92 92.02,403.37 109.40,400.81 121.26,396.80 133.12,392.78 144.35,387.37 155.58,381.96 166.32,374.95 177.05,367.95 183.42,362.13 189.79,356.31 194.62,350.91 199.45,345.50 202.64,342.80 205.84,340.10 205.98,339.69 206.12,339.27 206.36,338.90 206.60,338.53 206.93,338.23 207.25,337.93 207.63,337.71 208.02,337.50 208.44,337.38 208.86,337.26 209.31,337.25 209.75,337.24 210.18,337.33 210.61,337.42 211.00,337.62 211.40,337.81 211.74,338.09 212.07,338.38 212.33,338.73 212.60,339.09 212.76,339.49 212.93,339.90 213.00,340.34 213.06,340.77 213.02,341.21 212.98,341.65 212.77,342.55 212.57,343.45 211.82,345.74 211.08,348.02 209.79,351.61 208.49,355.19 205.72,361.25 202.94,367.32 197.28,374.63 191.63,381.95 183.06,385.58 174.48,389.21 161.65,390.63 148.82,392.04 135.92,389.23 123.02,386.42 108.34,379.89 93.65,373.36 78.89,363.40 64.14,353.43 59.09,346.52 54.03,339.61 56.04,334.65 58.05,329.70 63.04,328.63 68.03,327.56 77.32,327.01 86.61,326.46 102.44,325.85 118.26,325.24 135.88,326.18 153.49,327.11 174.30,327.30 195.12,327.48 207.60,326.28 220.08,325.08 228.28,322.48 236.49,319.88 240.17,315.72 243.84,311.56 243.38,306.92 242.91,302.28 241.33,296.44 239.74,290.59 237.55,285.43 235.35,280.28 233.31,274.29 231.28,268.30 230.24,264.46 229.20,260.61 229.15,260.20 229.10,259.79 229.15,259.37 229.19,258.96 229.34,258.57 229.49,258.18 229.72,257.84 229.96,257.50 230.27,257.22 230.58,256.95 230.95,256.75 231.31,256.56 231.72,256.46 232.12,256.36 232.54,256.35 232.95,256.35 233.36,256.45 233.76,256.55 234.13,256.74 234.50,256.94 234.81,257.21 235.12,257.48 235.36,257.83 235.59,258.17 235.74,258.56 235.89,258.94 236.40,261.55 236.91,264.16 237.97,268.32 239.03,272.48 239.77,277.56 240.52,282.64 240.76,290.76 241.01,298.88 237.49,301.01 233.98,303.14 230.81,301.79 227.64,300.45 223.41,297.73 219.17,295.01 213.54,289.39 207.92,283.77 203.94,276.54 199.97,269.31 195.40,258.96 190.83,248.62 189.81,240.19 188.79,231.75 190.94,223.75 193.08,215.75 198.92,208.06 204.77,200.36 211.48,198.34 218.20,196.32 229.22,195.31 240.23,194.31 251.84,195.03 263.46,195.75 278.97,197.45 294.47,199.15 305.32,199.18 316.18,199.21 324.02,197.73 331.87,196.25 338.34,191.80 344.80,187.34 344.66,183.16 344.52,178.98 343.19,173.87 341.85,168.76 340.16,163.72 338.46,158.67 336.19,153.55 333.92,148.43 333.10,145.97 332.29,143.51 331.17,139.12 330.05,134.73 328.64,132.27 327.23,129.81 323.45,124.62 319.68,119.43 313.15,111.24 306.61,103.05 295.58,91.13 284.54,79.21 274.06,69.67 263.57,60.13 252.10,51.81 240.63,43.49 228.23,38.15 215.84,32.82 210.12,34.07 204.40,35.32 199.91,39.01 195.42,42.71 192.78,48.62 190.14,54.54 186.15,65.45 182.16,76.36 180.01,86.54 177.87,96.72 177.98,97.09 178.10,97.45 178.13,97.83 178.15,98.21 178.09,98.58 178.02,98.96 177.87,99.31 177.72,99.66 177.48,99.96 177.25,100.26 176.95,100.50 176.66,100.73 176.31,100.89 175.97,101.05 175.59,101.13 175.22,101.20 174.84,101.18 174.46,101.16 174.09,101.05 173.73,100.94 173.40,100.74 173.07,100.55 172.80,100.28 172.53,100.02 172.33,99.69 172.13,99.37 171.01,97.27 169.89,95.17 167.73,90.51 165.57,85.84 161.21,76.93 156.84,68.02 149.88,56.38 142.93,44.74 132.43,29.91 121.94,15.09 111.25,6.51 100.57,-2.05 88.43,-6.43 76.29,-10.81 62.30,-12.24 48.30,-13.67 36.81,-10.63 25.32,-7.60 13.27,-2.36 1.23,2.87 0.86,2.97 0.50,3.08 0.13,3.09 -0.24,3.11 -0.61,3.04 -0.98,2.96 -1.32,2.80 -1.66,2.64 -1.95,2.40 -2.24,2.16 -2.47,1.86 -2.70,1.56 -2.85,1.22 -2.99,0.87 -3.06,0.50 -3.12,0.13 -3.09,-0.24 -3.06,-0.61 -2.94,-0.97 -2.82,-1.33 -2.62,-1.65 -2.42,-1.97 -2.15,-2.23 -1.88,-2.49 -1.55,-2.68 -1.23,-2.87 -1.23,-2.87 L -1.23,-2.87 Z"/></g></svg>